<svg width="25" height="25" viewBox="0 0 25 25" fill="none" xmlns="http://www.w3.org/2000/svg">
<path d="M14.6291 11.7656V17.2545M3.65136 6.27673H21.2158L19.4813 21.8871C19.4219 22.4243 19.1663 22.9208 18.7636 23.2813C18.361 23.6419 17.8394 23.8412 17.2989 23.8412H7.56823C7.02773 23.8412 6.5062 23.6419 6.10352 23.2813C5.70084 22.9208 5.44531 22.4243 5.38585 21.8871L3.65136 6.27673ZM7.32343 3.14477C7.501 2.7682 7.78198 2.44987 8.13359 2.22693C8.48521 2.00399 8.89297 1.88561 9.30931 1.88562H15.5579C15.9744 1.88541 16.3824 2.00368 16.7342 2.22664C17.086 2.44959 17.3672 2.76803 17.5448 3.14477L19.0202 6.27673H5.84692L7.32343 3.14477V3.14477ZM1.45581 6.27673H23.4114H1.45581ZM10.238 11.7656V17.2545V11.7656Z" stroke="#FAFAFA" stroke-width="2.19555" stroke-linecap="round" stroke-linejoin="round"/>
</svg>
